<svg width="24" height="24" viewBox="0 0 24 24" fill="none" xmlns="http://www.w3.org/2000/svg">
<path d="M15 12.51H15.5V12.01V10.51H16.5V13.01C16.5 13.2869 16.2769 13.51 16 13.51H8C7.72314 13.51 7.5 13.2869 7.5 13.01V10.51H8.5V12.01V12.51H9H15Z" stroke="white"/>
<path d="M21.801 6.41203L19.111 2.81303C18.736 2.31003 18.137 2.00903 17.508 2.00903H6.508C5.882 2.00903 5.284 2.30703 4.91 2.80603L2.201 6.40803L2.215 6.41803C2.089 6.58603 2 6.78403 2 7.01003V18.01C2 19.113 2.897 20.01 4 20.01H20C21.103 20.01 22 19.113 22 18.01V7.01003C22 6.78503 21.912 6.58903 21.788 6.42203L21.801 6.41203ZM6.508 4.01003H17.508L19.003 6.01003H5.004L6.508 4.01003ZM4 18.01V8.01003H20L20.002 18.01H4Z" fill="white"/>
</svg>
