<svg width="36" height="36" viewBox="0 0 36 36" fill="none" xmlns="http://www.w3.org/2000/svg">
<path d="M0 18C0 8.05888 8.05888 0 18 0C27.9411 0 36 8.05888 36 18C36 27.9411 27.9411 36 18 36C8.05888 36 0 27.9411 0 18Z" fill="#18A0FB"/>
<path fill-rule="evenodd" clip-rule="evenodd" d="M22 18C22 17.6464 21.8595 17.3072 21.6095 17.0572L16.2761 11.7238C15.7555 11.2032 14.9112 11.2032 14.3905 11.7238C13.8699 12.2445 13.8699 13.0888 14.3905 13.6094L18.7811 18L14.3905 22.3905C13.8699 22.9112 13.8699 23.7554 14.3905 24.2761C14.9112 24.7968 15.7555 24.7968 16.2761 24.2761L21.6095 18.9428C21.8595 18.6928 22 18.3536 22 18Z" fill="white"/>
</svg>
